<svg width="26" height="26" viewBox="0 0 26 26" fill="none" xmlns="http://www.w3.org/2000/svg">
<g clip-path="url(#clip0_5_72)">
<path d="M25.65 12.825C25.65 5.74177 19.9082 0 12.825 0C5.74177 0 0 5.74177 0 12.825C0 18.8399 4.14079 23.8862 9.72684 25.2726V16.7441H7.08222V12.825H9.72684V11.1363C9.72684 6.77079 11.7022 4.74752 15.9877 4.74752C16.8005 4.74752 18.2024 4.90726 18.7759 5.0665V8.61921C18.473 8.58746 17.9474 8.57133 17.2943 8.57133C15.1915 8.57133 14.3786 9.36804 14.3786 11.4392V12.825H18.5678L17.8482 16.7441H14.3786V25.5563C20.7291 24.7893 25.65 19.3821 25.65 12.825Z" fill="#0866FF"/>
<path d="M17.8482 16.7441L18.5678 12.825H14.3787V11.4392C14.3787 9.36809 15.1915 8.57137 17.2944 8.57137C17.9475 8.57137 18.4731 8.5875 18.776 8.61925V5.06655C18.2025 4.9073 16.8006 4.74756 15.9877 4.74756C11.7023 4.74756 9.7269 6.77134 9.7269 11.1364V12.825H7.08228V16.7441H9.7269V25.2726C10.7191 25.5185 11.7567 25.65 12.8251 25.65C13.3512 25.65 13.8692 25.6178 14.3787 25.5563V16.7441H17.8482Z" fill="white"/>
</g>
<defs>
<clipPath id="clip0_5_72">
<rect width="25.65" height="25.65" fill="white"/>
</clipPath>
</defs>
</svg>
