<svg width="26" height="26" viewBox="0 0 26 26" fill="none" xmlns="http://www.w3.org/2000/svg">
<path d="M12.7954 25.6499C5.72778 25.6499 0 19.9221 0 12.8544C0 9.46164 1.34771 6.20206 3.74539 3.80438C8.71312 -1.22603 16.8151 -1.27304 21.8455 3.69469C26.8759 8.66242 26.9229 16.7644 21.9552 21.7948C21.916 21.834 21.8847 21.8653 21.8455 21.9045C19.4478 24.31 16.1882 25.6655 12.7954 25.6499ZM12.5604 19.8594C12.8111 19.8594 13.054 19.8594 13.3047 19.8672C13.5555 19.8751 13.7984 19.8751 14.0413 19.8751C16.3528 19.8751 18.5075 19.687 19.4086 17.3677C19.7691 16.0592 19.9023 14.7036 19.7926 13.3559C19.7926 13.1208 19.7926 12.8858 19.7926 12.635C19.7926 12.3608 19.7926 12.1022 19.7926 11.8515C19.8082 9.44597 19.8161 7.85536 18.5781 6.61734C17.4497 5.48902 15.9532 5.395 14.1118 5.395C13.8767 5.395 13.6338 5.395 13.3831 5.395C13.1167 5.395 12.8424 5.395 12.5604 5.395C12.3175 5.395 12.0824 5.395 11.8473 5.395C11.6123 5.395 11.3772 5.395 11.15 5.395C8.70528 5.395 6.6132 5.58305 5.71211 7.89454C5.35167 9.20307 5.21847 10.5665 5.32817 11.922C5.32817 12.1492 5.32817 12.3921 5.32817 12.635C5.32817 12.8309 5.32817 13.0268 5.32817 13.2149V13.2305C5.2263 14.6253 5.35951 16.02 5.71211 17.3677C6.6132 19.6792 8.71312 19.8672 11.1578 19.8672C11.385 19.8672 11.6201 19.8672 11.8552 19.8672C12.0824 19.8672 12.3253 19.8594 12.5604 19.8594ZM14.2058 18.5665C13.9551 18.5665 13.6965 18.5665 13.4223 18.5587C13.148 18.5509 12.8581 18.5509 12.5682 18.5509C6.80908 18.5509 6.64454 18.3863 6.64454 12.6194C6.64454 9.65753 6.76207 8.22363 7.4751 7.47142C8.18814 6.7192 9.41832 6.6957 11.9257 6.6957H12.0902C12.4428 6.6957 12.7719 6.6957 13.0854 6.68786C13.438 6.68786 13.7749 6.68003 14.0883 6.68003C15.9218 6.68003 16.9718 6.8054 17.63 7.48709C18.6094 8.50571 18.6721 10.7937 18.4605 15.542C18.3195 18.3471 16.533 18.5665 14.2058 18.5665ZM12.5604 8.91316C10.5075 8.91316 8.84632 10.5743 8.84632 12.6272C8.84632 14.6801 10.5075 16.3412 12.5604 16.3412C14.6133 16.3412 16.2744 14.6801 16.2744 12.6272C16.2744 10.5821 14.6133 8.91316 12.5604 8.91316ZM16.4233 7.90237C15.9453 7.90237 15.5535 8.29415 15.5535 8.77212C15.5535 9.25008 15.9453 9.64186 16.4233 9.64186C16.9013 9.64186 17.293 9.25008 17.293 8.77212C17.293 8.28631 16.9013 7.90237 16.4233 7.90237ZM12.5604 15.0405C11.291 15.0876 10.2175 14.1003 10.1705 12.8309C10.1705 12.7604 10.1705 12.6977 10.1705 12.6272C10.1627 12.0239 10.3743 11.4284 10.766 10.9739C11.2205 10.4724 11.8787 10.1982 12.5604 10.2217C13.8297 10.1747 14.9032 11.162 14.9502 12.4313C14.9502 12.5018 14.9502 12.5645 14.9502 12.635C14.958 13.2384 14.7465 13.8339 14.3547 14.2883C13.9002 14.7898 13.2421 15.0641 12.5604 15.0405Z" fill="url(#paint0_linear_5_83)"/>
<defs>
<linearGradient id="paint0_linear_5_83" x1="21.4314" y1="1.393" x2="3.91157" y2="24.6585" gradientUnits="userSpaceOnUse">
<stop stop-color="#7D4292"/>
<stop offset="0.551" stop-color="#EC663A"/>
<stop offset="1" stop-color="#FBBD3F"/>
</linearGradient>
</defs>
</svg>
