<svg width="26" height="26" viewBox="0 0 26 26" fill="none" xmlns="http://www.w3.org/2000/svg">
<g clip-path="url(#clip0_5_79)">
<path d="M12.825 0C19.9084 0 25.65 5.74239 25.65 12.825C25.65 19.9077 19.9084 25.65 12.825 25.65C5.74151 25.65 0 19.9076 0 12.825C0 5.74248 5.7416 0 12.825 0Z" fill="#0E76A8"/>
<path d="M7.22684 17.6216H9.62835V9.61719H7.22684V17.6216ZM16.5827 9.33992C15.4172 9.33992 14.3744 9.76555 13.6346 10.705V9.59086H11.2243V17.6217H13.6346V13.2788C13.6346 12.361 14.4755 11.4657 15.5287 11.4657C16.5819 11.4657 16.8417 12.361 16.8417 13.2564V17.6209H19.2432V13.0776C19.2431 9.92183 17.749 9.33992 16.5827 9.33992ZM8.41637 8.81727C9.08007 8.81727 9.61875 8.27859 9.61875 7.61489C9.61875 6.95119 9.08007 6.4126 8.41637 6.4126C7.75267 6.4126 7.21399 6.95127 7.21399 7.61498C7.21399 8.27868 7.75267 8.81727 8.41637 8.81727Z" fill="white"/>
</g>
<defs>
<clipPath id="clip0_5_79">
<rect width="25.65" height="25.65" fill="white"/>
</clipPath>
</defs>
</svg>
