<svg width="26" height="26" viewBox="0 0 26 26" fill="none" xmlns="http://www.w3.org/2000/svg">
<g clip-path="url(#clip0_5_84)">
<path d="M12.822 25.6495C15.3587 25.6501 17.8386 24.8985 19.9481 23.4896C22.0576 22.0808 23.7019 20.078 24.6731 17.7346C25.6441 15.3912 25.8983 12.8125 25.4035 10.3246C24.9091 7.83671 23.688 5.55127 21.8947 3.75735C20.1011 1.96363 17.8161 0.741871 15.3284 0.246501C12.8404 -0.248385 10.2616 0.00545086 7.91793 0.975923C5.57414 1.94637 3.5709 3.59028 2.16171 5.69963C0.752337 7.80871 5.24105e-05 10.2884 0 12.825C0 14.5088 0.331145 16.1766 0.975401 17.7326C1.61939 19.2885 2.56369 20.7023 3.75432 21.8932C4.94501 23.0842 6.35862 24.0289 7.91443 24.6736C9.47031 25.3181 11.1379 25.6497 12.822 25.6495Z" fill="#FF0000"/>
<path d="M12.822 6.07305C14.1587 6.07155 15.4652 6.46632 16.5774 7.20726C17.6895 7.94863 18.5567 9.00326 19.0692 10.2377C19.5817 11.4719 19.7165 12.8304 19.4565 14.1413C19.1973 15.4525 18.5542 16.6571 17.6089 17.602C16.6644 18.5477 15.4605 19.192 14.1496 19.4531C12.8389 19.7139 11.4802 19.58 10.2455 19.0684C9.01087 18.5571 7.95569 17.6909 7.21362 16.5795C6.47129 15.4682 6.07518 14.1617 6.0754 12.8252C6.0784 11.0362 6.78929 9.32088 8.05376 8.05542C9.31825 6.7897 11.0329 6.07685 12.822 6.07305ZM10.3462 16.6151L16.9055 12.8252L10.3462 9.03833V16.6151ZM12.822 5.04004C11.2815 5.04004 9.77561 5.49693 8.49461 6.3526C7.21386 7.20854 6.21574 8.42511 5.62652 9.84841C5.03703 11.2715 4.88291 12.8375 5.18366 14.3482C5.48453 15.859 6.2265 17.2467 7.31582 18.336C8.40543 19.425 9.79354 20.1665 11.3046 20.4666C12.8155 20.7668 14.3814 20.6122 15.8044 20.0222C17.2274 19.4325 18.4435 18.4339 19.2987 17.1527C20.1542 15.8716 20.6104 14.3656 20.6097 12.8252C20.6097 11.8022 20.4083 10.7897 20.0171 9.84491C19.6256 8.90026 19.0519 8.04196 18.3288 7.31898C17.6054 6.59618 16.7467 6.02285 15.8019 5.63169C14.8571 5.24076 13.8445 5.03972 12.822 5.04004Z" fill="white"/>
</g>
<defs>
<clipPath id="clip0_5_84">
<rect width="25.65" height="25.65" fill="white"/>
</clipPath>
</defs>
</svg>
