<svg width="123" height="95" viewBox="0 0 123 95" fill="none" xmlns="http://www.w3.org/2000/svg">
<path fill-rule="evenodd" clip-rule="evenodd" d="M37.5443 0H120.354C121.704 0 122.814 1.24236 122.814 2.75335V18.9041H122.884V76.993V80.2164V80.9103H39.5143V76.993H119.384V19.5868H32.6143V5.51789C32.6143 2.48473 34.8343 0 37.5443 0ZM0.0143141 46.3144C-0.295686 39.8228 4.46431 38.1663 10.9143 38.5916L19.0543 48.7432L27.0243 38.7259L46.7643 38.6028C54.2243 39.5542 52.6543 48.2843 46.7643 48.6537H33.8443L30.8043 69.0911L28.5043 89.8419C27.9043 92.0356 26.7043 93.4683 24.9743 94.207L13.7443 94.2965C11.4843 93.916 10.1343 92.4386 9.73431 89.8419L7.98431 71.3632C3.38431 71.8556 1.84431 68.2069 1.36431 62.924L0.0143141 46.3144ZM18.5643 10.935C24.0943 10.935 28.5743 15.9493 28.5743 22.1387C28.5743 28.3281 24.0943 33.3424 18.5643 33.3424C13.0343 33.3424 8.55431 28.3281 8.55431 22.1387C8.54431 15.9605 13.0343 10.935 18.5643 10.935ZM18.9443 43.9752L12.6043 36.1964L14.4743 34.5288C17.2243 35.8159 19.9543 35.8159 22.6543 34.5288L25.2143 36.23L18.9443 43.9752ZM66.0443 5.01423C68.0543 5.01423 69.6843 6.8386 69.6843 9.08828C69.6843 11.338 68.0543 13.1623 66.0443 13.1623C64.0343 13.1623 62.4043 11.338 62.4043 9.08828C62.4043 6.8386 64.0343 5.01423 66.0443 5.01423ZM45.3343 5.01423C47.3443 5.01423 48.9743 6.8386 48.9743 9.08828C48.9743 11.338 47.3443 13.1623 45.3343 13.1623C43.3243 13.1623 41.6943 11.338 41.6943 9.08828C41.6943 6.8386 43.3243 5.01423 45.3343 5.01423ZM55.6843 5.01423C57.6943 5.01423 59.3243 6.8386 59.3243 9.08828C59.3243 11.338 57.6943 13.1623 55.6843 13.1623C53.6743 13.1623 52.0443 11.338 52.0443 9.08828C52.0443 6.8386 53.6743 5.01423 55.6843 5.01423ZM109.114 6.86098C108.744 6.44686 108.744 5.76412 109.114 5.35C109.484 4.93588 110.094 4.93588 110.464 5.35L112.464 7.58849L114.464 5.35C114.834 4.93588 115.444 4.93588 115.814 5.35C116.184 5.76412 116.184 6.44686 115.814 6.86098L113.814 9.09947L115.814 11.338C116.184 11.7521 116.184 12.4348 115.814 12.849C115.444 13.2631 114.834 13.2631 114.464 12.849L112.464 10.6105L110.464 12.849C110.094 13.2631 109.484 13.2631 109.114 12.849C108.744 12.4348 108.744 11.7521 109.114 11.338L111.114 9.09947L109.114 6.86098Z" fill="white"/>
</svg>
